<svg width="9" height="13" viewBox="0 0 9 13" fill="none" xmlns="http://www.w3.org/2000/svg">
<path d="M0.663772 6.39782C0.753286 6.56682 0.923499 6.67218 1.10863 6.67218L3.9914 6.67218L3.9914 12.4697C3.9914 12.7624 4.21926 13 4.50001 13C4.78076 13 5.00861 12.7624 5.00861 12.4697L5.00861 6.67218L7.89138 6.67218C8.07719 6.67218 8.24741 6.56682 8.33624 6.39782C8.42644 6.22883 8.42033 6.02236 8.322 5.85902L4.93063 0.247484C4.83704 0.0933367 4.67497 -3.25655e-07 4.50001 -3.4095e-07C4.32505 -3.56246e-07 4.16297 0.0933367 4.06939 0.247484L0.678013 5.85901C0.626474 5.94528 0.600027 6.04357 0.600027 6.14185C0.600027 6.22953 0.621727 6.31792 0.663772 6.39782Z" fill="#7D7D7D"/>
</svg>
