<svg width="9" height="13" viewBox="0 0 9 13" fill="none" xmlns="http://www.w3.org/2000/svg">
<path d="M8.33623 6.60218C8.24671 6.43318 8.0765 6.32782 7.89137 6.32782H5.0086V0.530324C5.0086 0.237585 4.78074 0 4.49999 0C4.21924 0 3.99139 0.237585 3.99139 0.530324V6.32782H1.10862C0.922806 6.32782 0.752593 6.43318 0.663757 6.60218C0.573564 6.77117 0.579668 6.97764 0.677998 7.14098L4.06937 12.7525C4.16296 12.9067 4.32503 13 4.49999 13C4.67495 13 4.83703 12.9067 4.93061 12.7525L8.32199 7.14098C8.37353 7.05472 8.39997 6.95643 8.39997 6.85815C8.39997 6.77046 8.37827 6.68208 8.33623 6.60218Z" fill="#EA6161"/>
</svg>
