<svg width="12" height="13" viewBox="0 0 12 13" fill="none" xmlns="http://www.w3.org/2000/svg">
<path fill-rule="evenodd" clip-rule="evenodd" d="M6 0.5C9.3084 0.5 12 3.1916 12 6.5C12 9.8084 9.3084 12.5 6 12.5C2.6916 12.5 0 9.8084 0 6.5C0 3.1916 2.6916 0.5 6 0.5ZM6 1.4C3.1878 1.4 0.9 3.6878 0.9 6.5C0.9 9.3122 3.1878 11.6 6 11.6C8.8122 11.6 11.1 9.3122 11.1 6.5C11.1 3.6878 8.8122 1.4 6 1.4ZM8.4006 5.31554C8.5764 5.49074 8.577 5.77574 8.4018 5.95214L6.3186 8.04374C6.2514 8.1119 6.16423 8.15587 6.07092 8.17073L6 8.17634C5.8806 8.17634 5.7654 8.12894 5.6814 8.04374L3.5988 5.95214C3.423 5.77574 3.4242 5.49074 3.6 5.31554C3.7764 5.14034 4.0614 5.14034 4.2366 5.31674L6 7.08914L7.764 5.31674C7.9392 5.14034 8.2242 5.14034 8.4006 5.31554Z" fill="white"/>
</svg>
