<svg width="20" height="32" viewBox="0 0 20 32" fill="none" xmlns="http://www.w3.org/2000/svg">
<path fill-rule="evenodd" clip-rule="evenodd" d="M19.6108 16.1289C16.3681 10.7564 13.1255 5.38385 9.88245 0.0113163C9.86432 0.00724255 9.8462 0.00362114 9.82807 0C9.82082 0.0131347 9.81489 0.0271686 9.81035 0.041662C9.75071 0.0570847 9.72718 0.104231 9.70404 0.150579C9.69727 0.16413 9.69054 0.177618 9.68295 0.19022C9.58745 0.348991 9.49268 0.508214 9.3979 0.667445C9.28078 0.864235 9.16346 1.06133 9.04494 1.2573C8.57992 2.02622 8.11453 2.79484 7.64916 3.56344L7.64609 3.56851C6.95351 4.71237 6.26096 5.85617 5.5697 7.00077C3.97628 9.63858 2.38332 12.2764 0.795335 14.9174C0.722305 15.0389 0.647029 15.1592 0.571752 15.2795C0.37643 15.5916 0.18104 15.9038 0.0249283 16.2385C-0.0410445 16.3537 0.0376493 16.3744 0.102164 16.3913C0.122328 16.3966 0.141141 16.4015 0.153665 16.4088C3.04667 18.1236 5.94195 19.8338 8.83949 21.5404C8.92756 21.5923 9.0146 21.646 9.10166 21.6998C9.33996 21.8471 9.57851 21.9945 9.83886 22.1029C9.85028 22.0987 9.86206 22.0955 9.87385 22.0918C9.89717 22.0846 9.92056 22.0774 9.94134 22.0653C13.1486 20.1726 16.3554 18.2798 19.5613 16.3848C19.572 16.3785 19.5846 16.3734 19.5975 16.3681C19.6388 16.3514 19.683 16.3335 19.6765 16.2693C19.66 16.2635 19.6435 16.2579 19.6269 16.2524C19.5869 16.2389 19.5467 16.2255 19.5082 16.2082C19.0634 16.0058 18.6189 15.803 18.1743 15.6002L18.1731 15.5996L18.1718 15.599C17.5559 15.3181 16.9397 15.0369 16.3232 14.757C14.7198 14.0292 13.1164 13.3013 11.5112 12.5785C13.0657 13.2783 14.6178 13.9824 16.1702 14.6871L16.3232 14.757C16.9395 15.0368 17.5552 15.3173 18.1709 15.5981L18.1718 15.599L18.1731 15.5996L18.1756 15.6003C18.6197 15.8029 19.0638 16.0059 19.5082 16.2082C19.5444 16.2246 19.5824 16.2369 19.6205 16.2496C19.6392 16.2559 19.6579 16.2626 19.6765 16.2693C19.6694 16.2542 19.6628 16.2383 19.6563 16.2228C19.6425 16.1907 19.6288 16.1586 19.6108 16.1289ZM8.57059 12.391C7.94161 12.6763 7.31272 12.9618 6.68382 13.2473L9.81738 11.8275L9.65691 11.8999L9.65563 11.9004L9.65436 11.901C9.33971 12.043 9.02491 12.185 8.71054 12.3275L8.57059 12.391Z" fill="#1C1C1C"/>
<path d="M9.8448 23.9816L15.4422 20.6844C15.8357 20.4525 16.2292 20.2204 16.6227 19.9884L16.6244 19.9873C17.5628 19.434 18.5012 18.8806 19.4407 18.3288C19.4549 18.3204 19.4686 18.3092 19.4824 18.2978C19.5233 18.2643 19.566 18.2292 19.6288 18.2623C19.479 18.4762 19.3296 18.6904 19.1803 18.9045L19.1783 18.9073C18.859 19.3651 18.5397 19.823 18.2164 20.2781C15.473 24.1388 12.7274 27.9981 9.98038 31.8561C9.97048 31.87 9.96243 31.887 9.9542 31.9043C9.92925 31.9569 9.90272 32.0128 9.8185 31.9974C9.82032 31.9573 9.82274 31.9173 9.82516 31.8772C9.82999 31.7973 9.83482 31.7175 9.83482 31.6378C9.83534 30.2439 9.83527 28.8498 9.83519 27.4557C9.83514 26.4106 9.83508 25.3655 9.83528 24.3204C9.83495 24.2392 9.8381 24.1587 9.84125 24.0782C9.8425 24.0461 9.84376 24.0138 9.8448 23.9816Z" fill="#1C1C1C"/>
<path d="M9.84075 24.0885C9.84217 24.0529 9.84365 24.0173 9.8448 23.9816C9.54407 23.8315 9.25681 23.6578 8.96939 23.4841C8.8633 23.4199 8.75718 23.3558 8.65034 23.2928C8.29566 23.0834 7.94099 22.874 7.58633 22.6646C5.28984 21.3086 2.99362 19.9529 0.695025 18.6005C0.644633 18.5708 0.594802 18.5396 0.544646 18.5082C0.39306 18.4134 0.238511 18.3167 0.0565681 18.2527C0.0721318 18.3491 0.121358 18.4114 0.167872 18.4703C0.180987 18.4868 0.193885 18.5032 0.205753 18.5199C1.12785 19.819 2.05093 21.117 2.97401 22.4151C3.58931 23.2804 4.2046 24.1456 4.8196 25.0111C5.30711 25.6972 5.79439 26.3835 6.28168 27.0698C7.31818 28.5296 8.35471 29.9894 9.39355 31.4476C9.42714 31.4948 9.45942 31.5431 9.49174 31.5916C9.58809 31.7359 9.68475 31.8806 9.81752 31.997C9.8193 31.9609 9.82149 31.9248 9.82368 31.8886C9.82876 31.805 9.83385 31.7212 9.83385 31.6374C9.83436 30.2434 9.83429 28.8494 9.83422 27.4553C9.83416 26.4102 9.8341 25.365 9.8343 24.32C9.83461 24.2428 9.83768 24.1656 9.84075 24.0885Z" fill="#1C1C1C"/>
</svg>
