<svg width="175" height="160" viewBox="0 0 175 160" fill="none" xmlns="http://www.w3.org/2000/svg">
<path d="M95.3752 0V10.7621L137.469 24.8084L168.045 14.6189L173.374 30.5853L147.849 39.0989L173.913 110.779C169.203 115.697 163.545 119.609 157.281 122.28C151.017 124.95 144.278 126.323 137.469 126.316C130.66 126.324 123.92 124.951 117.656 122.281C111.392 119.61 105.734 115.698 101.024 110.779L127.072 39.0989L95.3752 28.5221V143.158H129.05V160H44.8631V143.158H78.5378V28.5221L46.8163 39.0989L72.8805 110.779C68.1724 115.698 62.5161 119.61 56.2536 122.281C49.9911 124.951 43.2523 126.324 36.4445 126.316C29.6354 126.324 22.8955 124.951 16.6316 122.281C10.3678 119.61 4.70999 115.698 0 110.779L26.0474 39.0989L0.538795 30.5937L5.86782 14.6105L36.4445 24.8L78.5378 10.7621V0H95.3752ZM137.469 59.8147L120.985 105.171C126.016 108.003 131.695 109.486 137.469 109.474C143.362 109.474 149.002 107.958 153.952 105.179L137.469 59.8063V59.8147ZM36.4445 59.8147L19.9607 105.171C24.9922 108.003 30.6708 109.486 36.4445 109.474C42.3375 109.474 47.978 107.958 52.9282 105.179L36.4445 59.8063V59.8147Z" fill="#D2FF00"/>
<path fill-rule="evenodd" clip-rule="evenodd" d="M18.0869 122.754C24.0152 125.106 30.3399 126.313 36.7253 126.305C43.5331 126.314 50.2719 124.941 56.5345 122.271C62.797 119.6 68.4532 115.687 73.1613 110.769L61.2331 77.9644L48.2298 91.4628L53.2091 105.169C48.2589 107.948 42.6184 109.463 36.7253 109.463C34.9031 109.467 33.0903 109.322 31.3044 109.033L18.0869 122.754ZM78.8187 59.7091V143.148H45.144V159.99H129.331V143.148H95.6561V42.2306L78.8187 59.7091ZM105.657 31.849L118.604 18.4092L137.749 24.7981L168.326 14.6086L173.655 30.575L148.13 39.0886L174.194 110.769C169.484 115.687 163.826 119.599 157.562 122.27C151.298 124.94 144.558 126.313 137.749 126.305C130.94 126.313 124.2 124.941 117.937 122.27C111.673 119.6 106.015 115.687 101.305 110.769L127.352 39.0886L105.657 31.849ZM121.266 105.16L137.749 59.8044V59.796L154.233 105.169C149.283 107.948 143.643 109.463 137.749 109.463C131.976 109.475 126.297 107.993 121.266 105.16Z" fill="#9DBF00"/>
</svg>
