<svg width="213" height="160" viewBox="0 0 213 160" fill="none" xmlns="http://www.w3.org/2000/svg">
<path d="M131.558 0.00350246C127.34 0.0338768 123.154 0.238906 118.731 1.42351C113.913 2.7304 109.342 4.81578 105.198 7.5971C99.3769 4.17998 93.7386 1.37035 88.3359 0.709706C81.6261 -0.117996 75.3951 0.330029 68.1535 0.4819C59.5669 0.656553 53.9666 5.03806 44.8784 8.5463C35.7979 12.0393 24.1033 15.4261 7.59878 15.4261H0V88.5144L4.27812 90.6482L18.2827 97.5356L68.1535 153.06L68.3891 153.295C74.0882 158.93 81.7781 160.327 88.5714 159.94C95.3723 159.56 101.755 157.571 106.854 154.488C118.078 147.722 148.647 126.482 148.647 126.482L149.362 126.004L149.84 125.533C153.457 121.941 155.274 117.56 156.489 112.958L185.691 98.2418L207.538 90.8912L212.766 89.2206V15.4261H205.167C192.394 15.5134 179.728 13.0933 167.888 8.3033C158.799 4.7571 153.283 0.421151 144.605 0.238905C139.97 0.147782 135.76 -0.0268719 131.55 0.00350246H131.558ZM131.786 15.1907C135.205 15.1603 139.157 15.3426 144.141 15.4261C144.939 15.4565 152.242 18.5698 162.424 22.5489C171.033 25.928 182.994 28.9275 197.568 29.8995V78.3087L179.992 84.2468H179.521L179.043 84.4747L156.018 96.108C154.796 92.5841 152.855 89.352 150.319 86.616L149.84 85.9023L117.546 46.2789L112.796 40.3407L106.854 45.0867L86.4362 61.7015C79.5821 66.4475 74.0274 65.0806 68.3891 62.4153C66.7553 61.6407 66.8465 61.4053 65.5395 60.5169L100.213 31.7979L100.684 31.3271C110.98 21.1213 117.31 17.5903 122.766 16.1399C125.502 15.3957 128.381 15.2211 131.793 15.1907H131.786ZM78.845 15.4261C81.3803 15.3306 83.9192 15.4093 86.4438 15.6615C88.4347 15.8969 90.6915 17.5903 92.6216 18.2737C91.8465 18.9875 91.2842 19.3975 90.4787 20.1721L90.0076 20.6505L48.4499 55.0495L42.0365 60.2739L47.7356 66.2045C47.7356 66.2045 53.2295 72.1427 61.7477 76.1749C70.266 80.2071 83.4194 82.4927 95.228 74.2765L95.7067 73.7981L110.426 61.7015L138.45 96.108L138.685 96.5864L138.921 96.8142C143.936 101.773 143.822 109.571 138.921 114.621C138.86 114.674 138.982 114.796 138.921 114.849C138.86 114.887 137.857 115.479 137.736 115.57L127.758 102.039L115.41 111.06L125.152 124.106C121.201 126.779 119.422 128.176 115.175 130.993L104.97 117.226L92.614 126.247L102.356 139.293C101.489 139.824 99.7112 141.017 99.0274 141.434C96.6261 142.885 91.9909 144.517 87.8647 144.753C83.9818 144.965 81.0106 144.069 79.5593 142.854L79.3237 142.619L28.503 86.3806L27.5532 85.1885L15.1976 79.0225V29.8995C29.7112 28.9503 41.7629 26.0723 50.3419 22.7843C60.4939 18.8964 67.7432 15.6919 68.6246 15.6615L78.8374 15.4261H78.845Z" fill="#D2FF00"/>
<path fill-rule="evenodd" clip-rule="evenodd" d="M41.7021 123.538L67.9623 152.776L68.1979 153.011C73.8969 158.645 81.5869 160.043 88.3802 159.655C95.1811 159.276 101.564 157.286 106.663 154.203C117.886 147.437 148.456 126.198 148.456 126.198L149.171 125.72L149.649 125.249C153.266 121.657 155.082 117.276 156.298 112.674L185.5 97.9574L207.347 90.6068L212.575 88.9362V15.1417H204.976C192.203 15.2289 179.536 12.8089 167.696 8.01888C164.924 6.93697 162.483 5.78154 160.184 4.69299C159.247 4.24914 158.333 3.8164 157.43 3.4043L145.613 15.671C147.014 16.1934 149.212 17.0762 152.013 18.2015C154.863 19.3463 158.337 20.742 162.233 22.2645C170.842 25.6436 182.803 28.6431 197.377 29.6151V78.0242L179.801 83.9624H179.33L178.851 84.1902L155.827 95.8236C154.605 92.2997 152.664 89.0676 150.128 86.3316L149.649 85.6178L117.354 45.9944L116.922 45.4541L84.9911 78.6012C88.3578 77.7527 91.7494 76.2793 95.0368 73.992L95.5155 73.5136L110.234 61.417L138.259 95.8236L138.494 96.302L138.73 96.5298C143.745 101.488 143.631 109.287 138.73 114.337C138.699 114.363 138.715 114.407 138.73 114.451C138.745 114.494 138.76 114.538 138.73 114.565C138.716 114.573 138.65 114.613 138.556 114.669C138.248 114.852 137.638 115.216 137.544 115.286L127.567 101.754L115.219 110.775L124.961 123.821C123.206 125.008 121.88 125.944 120.576 126.864C118.943 128.015 117.345 129.142 114.984 130.709L104.778 116.941L92.4228 125.963L102.164 139.008C101.713 139.285 101.015 139.741 100.353 140.173C99.7435 140.571 99.164 140.95 98.8361 141.15C96.4349 142.6 91.7997 144.233 87.6735 144.468C83.7906 144.681 80.8194 143.785 79.3681 142.57L79.1325 142.334L52.2513 112.588L41.7021 123.538Z" fill="#9EBF00"/>
</svg>
