<svg width="135" height="160" viewBox="0 0 135 160" fill="none" xmlns="http://www.w3.org/2000/svg">
<path d="M91.4043 37.3333H80.6555C80.6555 30.2609 77.8243 23.4781 72.7849 18.4771C67.7454 13.4762 60.9104 10.6667 53.7835 10.6667C46.6565 10.6667 39.8215 13.4762 34.7821 18.4771C29.7426 23.4781 26.9114 30.2609 26.9114 37.3333H16.1626C16.1626 27.4319 20.1262 17.936 27.1815 10.9347C34.2368 3.93332 43.8058 0 53.7835 0C63.7611 0 73.3301 3.93332 80.3854 10.9347C87.4407 17.936 91.4043 27.4319 91.4043 37.3333Z" fill="#D2FF00"/>
<path d="M118.277 74.6667C115.5 74.6766 112.775 75.4124 110.376 76.8C108.927 74.5194 106.921 72.6391 104.544 71.3338C102.167 70.0284 99.496 69.3403 96.7791 69.3334C94.0025 69.3433 91.2776 70.0791 88.8788 71.4667C86.9235 68.4135 83.9832 66.108 80.5377 64.9263C77.0922 63.7446 73.3449 63.7565 69.9071 64.96V37.3334C69.9071 33.0899 68.2084 29.0202 65.1847 26.0197C62.161 23.0191 58.06 21.3334 53.7839 21.3334C49.5077 21.3334 45.4067 23.0191 42.383 26.0197C39.3593 29.0202 37.6607 33.0899 37.6607 37.3334V96.5333L25.6757 88.4267C22.9283 86.3962 19.5886 85.3102 16.163 85.3334C12.9651 85.3255 9.83713 86.2616 7.17671 88.0225C4.51629 89.7834 2.44364 92.2896 1.22227 95.2225C0.000906401 98.1553 -0.313997 101.382 0.3176 104.493C0.949197 107.604 2.49876 110.459 4.76928 112.693L47.7645 151.627C53.8516 157.033 61.738 160.015 69.9071 160H96.7791C106.757 160 116.326 156.067 123.381 149.065C130.436 142.064 134.4 132.568 134.4 122.667V90.6667C134.4 86.4232 132.701 82.3536 129.678 79.353C126.654 76.3524 122.553 74.6667 118.277 74.6667ZM123.651 122.667C123.651 129.739 120.82 136.522 115.781 141.523C110.741 146.524 103.906 149.333 96.7791 149.333H69.9071C64.4747 149.398 59.2033 147.503 55.0737 144L12.3472 105.067C11.3543 104.073 10.7946 102.732 10.7886 101.333C10.7886 100.343 11.0666 99.372 11.5913 98.5294C12.116 97.6869 12.8668 97.006 13.7595 96.5631C14.6522 96.1201 15.6516 95.9326 16.6457 96.0216C17.6397 96.1105 18.5892 96.4724 19.3877 97.0667L48.4095 116.8V37.3334C48.4095 35.9189 48.9757 34.5623 49.9836 33.5621C50.9915 32.5619 52.3585 32 53.7839 32C55.2093 32 56.5763 32.5619 57.5842 33.5621C58.5921 34.5623 59.1583 35.9189 59.1583 37.3334V96H69.9071V80C69.9071 78.5855 70.4733 77.229 71.4812 76.2288C72.4891 75.2286 73.8561 74.6667 75.2815 74.6667C76.7069 74.6667 78.0739 75.2286 79.0818 76.2288C80.0897 77.229 80.6559 78.5855 80.6559 80V96H91.4047V85.3334C91.4047 83.9189 91.971 82.5623 92.9789 81.5621C93.9868 80.5619 95.3538 80 96.7791 80C98.2045 80 99.5715 80.5619 100.579 81.5621C101.587 82.5623 102.154 83.9189 102.154 85.3334V96H112.902V90.6667C112.902 89.2522 113.469 87.8956 114.476 86.8954C115.484 85.8952 116.851 85.3334 118.277 85.3334C119.702 85.3334 121.069 85.8952 122.077 86.8954C123.085 87.8956 123.651 89.2522 123.651 90.6667V122.667Z" fill="#D2FF00"/>
<path fill-rule="evenodd" clip-rule="evenodd" d="M32 137.371L47.448 151.359C53.5351 156.766 61.4215 159.748 69.5906 159.733H96.4626C106.44 159.733 116.009 155.799 123.065 148.798C130.12 141.797 134.083 132.301 134.083 122.399V90.3993C134.083 86.1558 132.385 82.0862 129.361 79.0856C126.337 76.085 122.236 74.3993 117.96 74.3993C115.184 74.4092 112.459 75.145 110.06 76.5326C108.611 74.252 106.605 72.3717 104.228 71.0664C102.226 69.9674 100.017 69.306 97.747 69.1201L80.3394 87.1906V95.7326H91.0882V85.066C91.0882 83.6515 91.6544 82.2949 92.6623 81.2947C93.6702 80.2945 95.0373 79.7326 96.4626 79.7326C97.888 79.7326 99.255 80.2945 100.263 81.2947C101.271 82.2949 101.837 83.6515 101.837 85.066V95.7326H112.586V90.3993C112.586 88.9848 113.152 87.6283 114.16 86.6281C115.168 85.6279 116.535 85.066 117.96 85.066C119.386 85.066 120.753 85.6279 121.761 86.6281C122.768 87.6283 123.335 88.9848 123.335 90.3993V122.399C123.335 129.472 120.504 136.255 115.464 141.255C110.425 146.256 103.59 149.066 96.4626 149.066H69.5906C64.1582 149.131 58.8868 147.236 54.7572 143.733L39.3744 129.715L32 137.371Z" fill="#9EBF00"/>
</svg>
